<?xml version="1.0" encoding="UTF-8"?>
<svg id="Layer_1" xmlns="http://www.w3.org/2000/svg" version="1.1" viewBox="0 0 100 100">
  <!-- Generator: Adobe Illustrator 30.2.1, SVG Export Plug-In . SVG Version: 2.1.1 Build 1)  -->
  <defs>
    <style>
      .st0 {
        fill: #fff;
      }

      .st1 {
        fill: #f7c397;
      }
    </style>
  </defs>
  <path class="st1" d="M53.93,35.62c-.06-.12-.14-.23-.22-.35-1.04.91-1.94,1.99-2.66,3.22-.09.16-.18.32-.25.48,1.35,2.95,1.63,6.25.78,9.42l-.84,3.14-.74,2.78-2.24,8.34-.74,2.78-3.23,12.05-29.1-7.79c-3.61-.96-6.62-3.28-8.49-6.51-1.87-3.24-2.36-7.01-1.4-10.61,1-3.73,3.42-6.69,6.52-8.48,3.1-1.79,6.88-2.4,10.61-1.4l2.09.56.55-2.09c.97-3.61,3.28-6.63,6.52-8.49,3.23-1.87,7-2.37,10.61-1.4,1.53.41,2.96,1.07,4.24,1.93.4.27.78.55,1.14.86,1.14.96,2.13,2.1,2.92,3.4.79-1.3,1.78-2.45,2.92-3.4-.85-1.19-1.83-2.25-2.92-3.19-.37-.32-.76-.63-1.15-.91-1.79-1.31-3.84-2.29-6.04-2.88-4.72-1.27-9.65-.61-13.88,1.83-3.64,2.1-6.39,5.31-7.89,9.17-9.08-1.37-17.98,4.28-20.41,13.36-1.26,4.72-.61,9.65,1.83,13.89,2.45,4.23,6.4,7.26,11.12,8.52l33.27,8.92,2.41-9,.75-2.78,2.23-8.34.75-2.78,2.78-10.37c1.27-4.72.61-9.66-1.83-13.89Z"/>
  <g>
    <polygon class="st0" points="78.15 19.69 82.42 22.15 82.42 17.22 78.15 19.69"/>
    <polygon class="st0" points="84.59 23.41 88.86 25.87 88.86 20.94 84.59 23.41"/>
    <polygon class="st0" points="91.04 27.13 95.3 29.59 95.3 24.66 91.04 27.13"/>
    <polygon class="st0" points="83.87 17.22 83.87 22.15 88.14 19.68 83.87 17.22"/>
    <polygon class="st0" points="90.31 20.94 90.31 25.87 94.58 23.41 90.31 20.94"/>
    <polygon class="st0" points="82.27 35.53 94.37 30.72 89.71 28.03 82.27 35.53"/>
    <polygon class="st0" points="83.59 24.5 80.73 35.03 88.41 27.28 83.59 24.5"/>
    <polygon class="st0" points="77.63 21.06 79.52 33.94 82.3 23.75 77.63 21.06"/>
  </g>
  <path class="st1" d="M47.08,34.06c-.28.39-.55.8-.8,1.22.99.85,1.82,1.84,2.49,2.94l.44.73c.18-.4.38-.78.6-1.16.06-.11.12-.22.19-.32-.79-1.3-1.78-2.45-2.92-3.4ZM99.37,51.45c-2.43-9.08-11.32-14.74-20.41-13.36-1.5-3.86-4.25-7.07-7.89-9.17-4.23-2.44-9.17-3.09-13.89-1.83-2.2.59-4.24,1.56-6.03,2.88-.4.28-.78.58-1.15.91-1.09.93-2.07,2-2.92,3.18-.28.39-.55.8-.8,1.22-.07.12-.14.23-.21.35-2.45,4.23-3.09,9.17-1.83,13.89l2.78,10.37.74,2.78,2.24,8.34,2.23-8.34-2.23-8.34-.75-2.78-.84-3.14c-.85-3.19-.56-6.5.8-9.46.18-.4.38-.78.6-1.16.06-.11.12-.22.19-.32.79-1.3,1.78-2.45,2.92-3.4.37-.31.75-.6,1.14-.87,1.27-.86,2.7-1.52,4.23-1.93,3.61-.97,7.38-.47,10.61,1.4,3.23,1.86,5.55,4.88,6.51,8.49l.56,2.09,2.09-.56c3.72-1,7.51-.39,10.61,1.4,3.1,1.79,5.52,4.76,6.52,8.48.96,3.61.47,7.38-1.4,10.61-1.87,3.23-4.89,5.55-8.49,6.51l-29.1,7.79-3.23-12.05-1.59,5.94-.65,2.4,2.41,9.01,33.28-8.92c4.72-1.26,8.66-4.29,11.11-8.52,2.45-4.24,3.09-9.17,1.83-13.89Z"/>
</svg>