<svg width="512" height="512" viewBox="0 0 512 512" xmlns="http://www.w3.org/2000/svg" aria-hidden="true">
  <path fill="#613c35" fill-rule="evenodd" clip-rule="evenodd" d="
    M256 56
    C161.6 56 85 132.6 85 227
    C85 290.4 120.8 339.5 163.9 384.1
    C193.7 414.9 225 444.2 246.9 464
    C252.1 468.7 259.9 468.7 265.1 464
    C287 444.2 318.3 414.9 348.1 384.1
    C391.2 339.5 427 290.4 427 227
    C427 132.6 350.4 56 256 56
    Z

    M256 144
    A83 83 0 1 1 256 310
    A83 83 0 1 1 256 144
    Z"/>
</svg>