<svg version="1.1" id="Layer_1" xmlns="http://www.w3.org/2000/svg" xmlns:xlink="http://www.w3.org/1999/xlink" x="0px" y="0px" width="100px" height="100px" viewBox="0 0 1024 1024" enable-background="new 0 0 1024 1024" xml:space="preserve" transform="rotate(0) scale(1, 1)">
<path fill="#613c35" opacity="1.000000" stroke="none" d="
M272.870483,745.075256
	C256.388916,715.241455 236.941238,688.147095 211.626236,665.591370
	C199.436951,654.730774 186.959351,644.183655 175.009323,633.067749
	C164.406906,623.205383 155.639465,611.870911 151.849731,597.512939
	C146.511230,577.287231 152.545944,559.850281 166.351288,545.120117
	C180.460236,530.065979 198.635315,522.193481 218.861313,519.791260
	C267.137634,514.057251 308.790649,529.186523 344.846466,561.079529
	C345.718292,561.850708 346.631012,562.582458 347.576935,563.259583
	C347.955933,563.530884 348.476471,563.604370 349.237885,563.877380
	C350.409180,561.678894 350.030853,559.326721 350.043427,557.096497
	C350.405823,492.778687 350.390900,428.456451 351.183868,364.144135
	C351.740631,318.988098 351.245209,273.831329 351.932983,228.682266
	C352.295258,204.901520 357.430634,182.438583 372.787506,163.320740
	C395.887543,134.563370 438.756165,131.875900 465.428650,157.485138
	C480.237549,171.703751 487.912811,189.521240 491.237732,209.328156
	C495.048370,232.028671 495.128815,255.053848 496.342224,277.975861
	C497.846771,306.398254 499.529053,334.811279 501.016022,363.234528
	C501.885803,379.859436 502.507568,396.497192 503.274963,413.127594
	C503.618439,420.571747 504.045563,428.012054 504.496063,436.627136
	C522.507446,423.866455 541.435852,418.260590 562.548401,423.588531
	C583.583191,428.896851 598.366699,441.951263 608.299805,462.148132
	C628.405273,441.273010 652.112122,432.998016 679.888489,439.443329
	C707.602173,445.874176 724.444275,465.236267 736.326355,489.262970
	C738.700684,489.448975 739.709900,488.208221 740.864990,487.315094
	C779.524780,457.421967 830.768860,468.891144 853.046631,512.475098
	C862.774536,531.506653 867.831970,551.954468 871.294678,572.904541
	C877.228455,608.804749 876.942505,644.762512 873.576904,680.899353
	C869.882141,720.569702 863.969482,759.826660 854.194031,798.453308
	C843.033264,842.554016 827.005310,884.517944 798.871765,920.963562
	C766.765625,962.555298 724.826599,989.828552 675.091675,1005.701355
	C636.144592,1018.131409 596.216125,1022.111694 555.682495,1018.029724
	C507.069550,1013.134033 462.816620,996.026672 421.781647,969.427124
	C388.349030,947.755554 366.027802,916.976562 346.458160,883.484802
	C326.106628,848.655029 308.627777,812.303101 289.844025,776.642517
	C284.333313,766.180542 278.652313,755.808228 272.870483,745.075256
M707.217896,535.262756
	C707.051941,534.277466 706.891785,533.291199 706.719177,532.307068
	C704.202148,517.952759 700.944275,503.850555 691.914490,491.903137
	C674.824280,469.290680 646.767151,471.305908 633.034363,496.029999
	C626.872803,507.122955 623.274963,518.927246 622.235901,531.577820
	C621.290527,543.088684 612.486389,550.883057 601.171814,550.502563
	C590.041748,550.128296 581.962036,541.929321 581.755798,530.481384
	C581.632751,523.649963 581.519531,516.835632 580.762634,510.034302
	C579.463623,498.362518 576.974792,487.044128 571.392639,476.580200
	C561.054626,457.201355 539.331116,454.918152 525.475464,471.901459
	C515.699036,483.884705 511.028351,498.002075 509.305847,513.169800
	C508.012115,524.561951 499.213379,532.675049 488.196716,532.330811
	C477.540863,531.997864 469.199249,523.560974 468.691467,512.701538
	C467.447357,486.093292 466.187622,459.485779 464.893616,432.879944
	C463.251495,399.116394 461.544769,365.356049 459.911743,331.592072
	C458.439606,301.154388 457.140350,270.707825 455.529877,240.277618
	C454.985321,229.988770 454.302002,219.654526 451.499329,209.643021
	C448.851013,200.183060 444.829376,191.445374 437.068420,185.024109
	C426.194397,176.027084 413.000793,177.288589 403.795563,187.800705
	C394.194946,198.764313 391.598938,212.012634 391.378143,225.898712
	C390.901276,255.889481 390.866211,285.886292 390.564148,315.880005
	C389.733398,398.368073 390.664917,480.866364 389.444275,563.356384
	C389.099091,586.684509 389.380798,610.021667 389.322876,633.354553
	C389.297363,643.627563 382.639893,651.780151 373.227875,653.255981
	C362.320282,654.966309 353.150269,649.417542 349.807831,639.185059
	C348.413849,634.917664 347.160583,630.559509 345.283905,626.501404
	C325.410767,583.527954 278.310242,554.972595 231.030777,557.397644
	C219.926590,557.967285 209.344437,560.912415 200.037659,567.405762
	C188.251587,575.628906 186.507507,585.146606 194.905792,596.668823
	C201.254501,605.379089 209.714035,612.008362 217.968491,618.724121
	C245.685272,641.274048 270.317444,666.662598 289.843445,696.691772
	C306.941254,722.986572 321.113129,750.936401 335.334015,778.845459
	C350.990417,809.571960 366.560211,840.345947 384.107391,870.063171
	C399.938232,896.873779 418.601898,920.733521 445.513824,937.906921
	C482.235260,961.339966 521.744263,976.069458 565.061646,979.456543
	C607.941162,982.809448 649.377563,976.111267 688.774597,958.147705
	C729.070862,939.774109 761.101624,912.329346 783.313965,873.687500
	C800.518555,843.757263 811.020020,811.370178 818.659424,777.994202
	C827.953064,737.390503 833.727478,696.269714 835.981628,654.618835
	C837.320129,629.888733 836.388428,605.363403 832.640808,580.937073
	C830.415466,566.432190 826.907288,552.217590 821.601562,538.485107
	C819.361633,532.687683 816.468628,527.287903 812.570312,522.437988
	C798.284607,504.664856 774.359985,505.215027 760.822083,523.648376
	C754.177246,532.696045 750.559204,543.023438 748.367004,553.894226
	C747.563721,557.877625 746.543030,561.729492 743.847290,564.838074
	C738.501038,571.002991 731.752197,573.738892 723.723022,571.702209
	C715.623596,569.647644 710.412781,564.369080 708.643860,556.066895
	C707.244324,549.498230 708.155518,542.762512 707.217896,535.262756
z"/>
<path fill="#613c35" opacity="1.000000" stroke="none" d="
M233.860565,105.915787
	C234.521057,96.721909 238.723068,90.457703 246.985779,87.114189
	C254.994003,83.873642 261.721436,86.727928 267.678253,91.906761
	C282.252686,104.577705 296.731201,117.360283 311.149200,130.209167
	C317.469055,135.841232 319.647217,143.061951 316.886108,151.038696
	C314.101532,159.083221 308.085510,163.801392 299.448639,164.730698
	C293.773468,165.341354 288.859070,163.139740 284.788177,159.570496
	C269.889954,146.508072 255.168488,133.243744 240.404251,120.028870
	C236.339691,116.390846 234.688751,111.551788 233.860565,105.915787
z"/>
<path fill="#613c35" opacity="1.000000" stroke="none" d="
M566.754639,103.733986
	C571.259460,100.007011 575.350891,96.317284 579.751831,93.043655
	C588.748108,86.351898 599.882324,87.392601 606.724121,95.318817
	C613.773926,103.486023 613.439880,114.918747 605.053833,122.638191
	C594.776123,132.099030 583.930054,140.943924 573.295166,150.014694
	C568.484192,154.118088 563.735107,158.315506 558.700928,162.131073
	C550.232849,168.549240 539.134521,167.432434 532.645874,159.798111
	C525.314758,151.172562 525.249695,140.364731 533.374634,132.844955
	C544.118408,122.901253 555.419678,113.559868 566.754639,103.733986
z"/>
<path fill="#613c35" opacity="1.000000" stroke="none" d="
M442.356232,28.133873
	C442.357391,46.261040 442.397247,63.906269 442.345520,81.551231
	C442.313202,92.572479 435.064697,100.762619 424.817505,101.543724
	C413.163116,102.432076 404.575317,95.894630 403.402313,84.129433
	C402.547272,75.552872 402.975128,66.843536 402.925049,58.192852
	C402.865295,47.872475 402.717224,37.547329 402.945953,27.231758
	C403.315338,10.574905 419.383179,1.162908 433.206543,9.450878
	C440.004456,13.526664 442.583923,19.936134 442.356232,28.133873
z"/>
<path fill="#613c35" opacity="1.000000" stroke="none" d="
M665.339417,251.027466
	C670.654480,263.236328 662.414001,278.322144 646.082581,278.168732
	C628.104736,277.999847 610.122070,278.323578 592.144897,278.123749
	C576.433594,277.949158 567.330994,262.332458 574.870850,248.784073
	C577.919739,243.305405 582.892578,240.419571 588.965881,239.585403
	C598.239380,238.311691 607.584167,239.141861 616.895630,239.003098
	C626.548767,238.859207 636.209534,238.858307 645.860901,239.068802
	C654.406128,239.255173 661.460938,242.283554 665.339417,251.027466
z"/>
<path fill="#613c35" opacity="1.000000" stroke="none" d="
M192.701080,251.235367
	C194.575241,239.770905 201.543823,233.703094 212.498169,233.682205
	C230.633255,233.647644 248.768555,233.629211 266.903564,233.679062
	C278.387634,233.710617 287.226715,242.320984 287.101532,253.200363
	C286.969147,264.707153 278.938843,272.298798 266.755005,272.321899
	C248.952606,272.355682 231.150085,272.331604 213.347610,272.317261
	C199.902573,272.306427 192.779434,265.177856 192.701080,251.235367
z"/>
</svg>
